<svg width="64" height="64" viewBox="0 0 64 64" fill="none" xmlns="http://www.w3.org/2000/svg">
    <circle cx="32" cy="32" r="32" fill="#F5F5F5"/>
    <path d="M64 32C64 49.6732 49.6732 64 32 64C14.3268 64 0 49.6732 0 32C0 14.3268 14.3268 0 32 0C49.6732 0 64 14.3268 64 32ZM28.2986 48.9437L52.0405 25.2018C52.8467 24.3956 52.8467 23.0884 52.0405 22.2822L49.1209 19.3626C48.3147 18.5563 47.0075 18.5563 46.2012 19.3626L26.8387 38.7249L17.7988 29.685C16.9926 28.8788 15.6854 28.8788 14.8791 29.685L11.9595 32.6046C11.1533 33.4108 11.1533 34.7181 11.9595 35.5243L25.3788 48.9436C26.1852 49.7499 27.4923 49.7499 28.2986 48.9437V48.9437Z" fill="#32C671"/>
</svg>
