<svg width="40" height="36" viewBox="0 0 40 36" fill="none" xmlns="http://www.w3.org/2000/svg">
<path d="M19.113 22.7334C19.3666 22.9565 19.6832 23.0682 20.0001 23.0682C20.317 23.0682 20.6338 22.9565 20.8873 22.7334C21.2085 22.4505 28.7514 15.7272 28.7514 8.75451C28.7514 3.92729 24.8257 0 20.0003 0C15.1747 0 11.2489 3.92729 11.2489 8.75451C11.2486 15.7272 18.7918 22.4505 19.113 22.7334ZM20.0001 6.4671C21.2529 6.4671 22.2688 7.49094 22.2688 8.75451C22.2688 10.018 21.2529 11.0419 20.0001 11.0419C18.7469 11.0419 17.7312 10.0178 17.7312 8.75451C17.7312 7.49094 18.7469 6.4671 20.0001 6.4671Z" fill="black"/>
<path d="M36.8158 22.7295L35.8021 19.177C35.6375 18.6004 35.1108 18.203 34.5114 18.203H27.2765C27.015 18.5918 26.739 18.9821 26.4472 19.3746C24.4193 22.0992 22.3577 23.9422 22.1292 24.1436C21.5406 24.6619 20.7847 24.9473 20.0001 24.9473C19.2162 24.9473 18.4602 24.6622 17.8708 24.1434C17.6426 23.9422 15.5807 22.0989 13.553 19.3746C13.2611 18.9821 12.9852 18.5917 12.7236 18.203H5.48857C4.88924 18.203 4.3625 18.6004 4.19792 19.177L2.9897 23.4108L29.9971 28.3577L36.8158 22.7295Z" fill="black"/>
<path d="M39.9485 33.7084L37.3586 24.6315L24.5084 35.4191H38.658C39.0791 35.4191 39.4758 35.2215 39.7294 34.8854C39.983 34.5491 40.0639 34.1133 39.9485 33.7084Z" fill="black"/>
<path d="M6.57139 25.9773L2.47171 25.2263L0.0514975 33.7084C-0.0639239 34.1132 0.0170192 34.5491 0.270758 34.8852C0.524361 35.2214 0.920996 35.419 1.34214 35.419H6.57139V25.9773Z" fill="black"/>
<path d="M8.45059 26.3217V35.4189H21.5856L28.1289 29.926L8.45059 26.3217Z" fill="black"/>
</svg>
